 <svg width="15" height="13" viewBox="0 0 15 13" fill="none" xmlns="http://www.w3.org/2000/svg">
                                                                            <path d="M10.2021 8.58594L10.9521 7.83594C11.0693 7.71875 11.2803 7.8125 11.2803 7.97656V11.375C11.2803 12.0078 10.7646 12.5 10.1553 12.5H1.90527C1.27246 12.5 0.780273 12.0078 0.780273 11.375V3.125C0.780273 2.51562 1.27246 2 1.90527 2H8.30371C8.46777 2 8.56152 2.21094 8.44434 2.32812L7.69434 3.07812C7.64746 3.125 7.60059 3.125 7.55371 3.125H1.90527V11.375H10.1553V8.72656C10.1553 8.67969 10.1553 8.63281 10.2021 8.58594ZM13.8584 3.875L7.71777 10.0156L5.58496 10.25C4.97559 10.3203 4.45996 9.80469 4.53027 9.19531L4.76465 7.0625L10.9053 0.921875C11.4443 0.382812 12.3115 0.382812 12.8506 0.921875L13.8584 1.92969C14.3975 2.46875 14.3975 3.33594 13.8584 3.875ZM11.5615 4.57812L10.2021 3.21875L5.84277 7.57812L5.65527 9.125L7.20215 8.9375L11.5615 4.57812ZM13.0615 2.72656L12.0537 1.71875C11.96 1.60156 11.7959 1.60156 11.7021 1.71875L10.999 2.42188L12.3584 3.80469L13.085 3.07812C13.1787 2.96094 13.1787 2.82031 13.0615 2.72656Z" fill="currentColor" />
                                                                        </svg>