<svg width="23" height="23" viewBox="0 0 23 23" fill="none" xmlns="http://www.w3.org/2000/svg">
<path opacity="0.4" d="M11.4997 16.2916C10.9913 16.2916 10.5038 16.0897 10.1444 15.7302C9.78494 15.3708 9.58301 14.8833 9.58301 14.3749C9.58301 13.3112 10.4359 12.4583 11.4997 12.4583C12.008 12.4583 12.4955 12.6602 12.855 13.0196C13.2144 13.3791 13.4163 13.8666 13.4163 14.3749C13.4163 14.8833 13.2144 15.3708 12.855 15.7302C12.4955 16.0897 12.008 16.2916 11.4997 16.2916ZM17.2497 19.1666V9.58325H5.74967V19.1666H17.2497ZM17.2497 7.66658C17.758 7.66658 18.2455 7.86852 18.605 8.22796C18.9644 8.58741 19.1663 9.07492 19.1663 9.58325V19.1666C19.1663 19.6749 18.9644 20.1624 18.605 20.5219C18.2455 20.8813 17.758 21.0833 17.2497 21.0833H5.74967C5.24134 21.0833 4.75383 20.8813 4.39439 20.5219C4.03494 20.1624 3.83301 19.6749 3.83301 19.1666V9.58325C3.83301 8.5195 4.68592 7.66658 5.74967 7.66658H6.70801V5.74992C6.70801 4.47909 7.21284 3.26031 8.11145 2.3617C9.01007 1.46309 10.2288 0.958252 11.4997 0.958252C12.1289 0.958252 12.752 1.08219 13.3334 1.323C13.9147 1.5638 14.4429 1.91675 14.8879 2.3617C15.3328 2.80665 15.6858 3.33488 15.9266 3.91623C16.1674 4.49758 16.2913 5.12067 16.2913 5.74992V7.66658H17.2497ZM11.4997 2.87492C10.7372 2.87492 10.0059 3.17782 9.46674 3.71699C8.92758 4.25615 8.62467 4.98742 8.62467 5.74992V7.66658H14.3747V5.74992C14.3747 4.98742 14.0718 4.25615 13.5326 3.71699C12.9934 3.17782 12.2622 2.87492 11.4997 2.87492Z" fill="black"/>
</svg>
