<svg width="23" height="23" viewBox="0 0 23 23" fill="none" xmlns="http://www.w3.org/2000/svg">
<g opacity="0.4">
<path d="M21.058 18.8672C19.8262 16.7053 17.9028 15.0208 15.5973 14.0848C16.7438 13.225 17.5907 12.0262 18.018 10.6582C18.4453 9.29032 18.4314 7.82263 17.9782 6.46307C17.525 5.10351 16.6555 3.921 15.4929 3.08305C14.3303 2.2451 12.9336 1.79419 11.5005 1.79419C10.0674 1.79419 8.67058 2.2451 7.50799 3.08305C6.34539 3.921 5.47592 5.10351 5.02273 6.46307C4.56954 7.82263 4.55562 9.29032 4.98292 10.6582C5.41023 12.0262 6.2571 13.225 7.40358 14.0848C5.09812 15.0208 3.17468 16.7053 1.94288 18.8672C1.86655 18.9899 1.81568 19.1267 1.79329 19.2695C1.7709 19.4123 1.77744 19.5581 1.81254 19.6983C1.84763 19.8385 1.91055 19.9703 1.99757 20.0857C2.08458 20.2011 2.19391 20.2978 2.31905 20.3701C2.44419 20.4424 2.5826 20.4888 2.72603 20.5065C2.86946 20.5243 3.015 20.513 3.15399 20.4734C3.29298 20.4338 3.42258 20.3666 3.5351 20.2759C3.64761 20.1852 3.74074 20.0727 3.80894 19.9453C5.4369 17.1314 8.3119 15.4531 11.5005 15.4531C14.689 15.4531 17.564 17.1323 19.192 19.9453C19.3398 20.183 19.5742 20.3539 19.8457 20.4218C20.1172 20.4898 20.4045 20.4495 20.6468 20.3095C20.8892 20.1695 21.0676 19.9407 21.1443 19.6715C21.221 19.4024 21.1901 19.114 21.058 18.8672ZM6.82858 8.62501C6.82858 7.701 7.10259 6.79774 7.61594 6.02946C8.12929 5.26117 8.85894 4.66236 9.71261 4.30876C10.5663 3.95516 11.5056 3.86264 12.4119 4.0429C13.3182 4.22317 14.1506 4.66812 14.804 5.32149C15.4573 5.97487 15.9023 6.80732 16.0826 7.71357C16.2628 8.61983 16.1703 9.55918 15.8167 10.4129C15.4631 11.2665 14.8643 11.9962 14.096 12.5095C13.3277 13.0229 12.4245 13.2969 11.5005 13.2969C10.2618 13.2955 9.07436 12.8028 8.19852 11.9269C7.32268 11.0511 6.83001 9.86363 6.82858 8.62501Z" fill="black"/>
</g>
</svg>
