 <svg width="10" height="8" viewBox="0 0 10 8" fill="none" xmlns="http://www.w3.org/2000/svg">
                                                                    <path d="M9.43876 0.929999C9.53873 1.02061 9.59929 1.14794 9.60715 1.28401C9.61501 1.42008 9.56952 1.55376 9.48067 1.65569L4.09537 7.82738C4.048 7.88167 3.98988 7.92514 3.92482 7.9549C3.85977 7.98466 3.78927 8.00005 3.71796 8.00005C3.64664 8.00005 3.57614 7.98466 3.51109 7.9549C3.44604 7.92514 3.38791 7.88167 3.34054 7.82738L0.647892 4.74153C0.564137 4.63891 0.522825 4.50714 0.532682 4.37406C0.542539 4.24098 0.602792 4.11702 0.700715 4.02835C0.798637 3.93969 0.92656 3.89327 1.05746 3.8989C1.18836 3.90453 1.31198 3.96177 1.40222 4.05853L3.7177 6.71184L8.72635 0.972172C8.81537 0.870419 8.94041 0.808824 9.07399 0.800916C9.20757 0.793008 9.33877 0.839436 9.43876 0.929999Z" fill="currentColor" />
                                                                </svg>