<svg width="17" height="20" viewBox="0 0 17 20" fill="none" xmlns="http://www.w3.org/2000/svg">
                          <g clip-path="url(#clip0_1_218)">
                            <path d="M16.3909 19.17H2.22761C1.646 19.1781 1.08495 18.9551 0.667586 18.55C0.250223 18.1448 0.0106561 17.5906 0.00146484 17.009V2.47101C0.0106561 1.88942 0.250223 1.33523 0.667586 0.930086C1.08495 0.524941 1.646 0.30194 2.22761 0.310027H14.7722C14.8508 0.308795 14.9288 0.323049 15.0019 0.351975C15.0749 0.380902 15.1415 0.423934 15.1979 0.478613C15.2543 0.533293 15.2994 0.59855 15.3306 0.670656C15.3618 0.742762 15.3785 0.820305 15.3797 0.898856V3.452H16.3909C16.4695 3.45077 16.5475 3.46502 16.6206 3.49395C16.6936 3.52288 16.7602 3.56591 16.8166 3.62059C16.873 3.67527 16.9181 3.74053 16.9493 3.81263C16.9805 3.88474 16.9972 3.96228 16.9984 4.04083V18.58C16.9973 18.6587 16.9808 18.7364 16.9496 18.8086C16.9185 18.8808 16.8735 18.9462 16.817 19.001C16.7606 19.0558 16.6939 19.099 16.6208 19.128C16.5477 19.157 16.4696 19.1713 16.3909 19.17ZM1.2152 4.39576V17.009C1.21949 17.2732 1.32833 17.525 1.51788 17.7091C1.70744 17.8932 1.96223 17.9946 2.22645 17.9912H15.7835V4.63199H2.22761C1.87703 4.63398 1.5308 4.5543 1.21636 4.39925L1.2152 4.39576ZM2.22645 1.48652C1.96223 1.4831 1.70744 1.58455 1.51788 1.76865C1.32833 1.95275 1.21949 2.20448 1.2152 2.46868C1.21949 2.73288 1.32833 2.98461 1.51788 3.16871C1.70744 3.35281 1.96223 3.45426 2.22645 3.45084H14.166V1.48885L2.22645 1.48652Z" fill="currentColor" />
                            <path d="M5.98075 13.8403C5.84466 13.8402 5.71289 13.7925 5.60837 13.7053L3.28098 11.7654C3.2155 11.7108 3.16282 11.6425 3.12667 11.5653C3.09052 11.488 3.07178 11.4038 3.07178 11.3186C3.07178 11.2333 3.09052 11.1491 3.12667 11.0719C3.16282 10.9946 3.2155 10.9263 3.28098 10.8717L5.60837 8.93182C5.66705 8.88285 5.73481 8.84591 5.80777 8.82311C5.88072 8.80032 5.95746 8.79212 6.03359 8.79898C6.10971 8.80584 6.18374 8.82763 6.25145 8.8631C6.31916 8.89858 6.37921 8.94704 6.42819 9.00572C6.47717 9.0644 6.51411 9.13216 6.5369 9.20511C6.5597 9.27807 6.5679 9.35481 6.56104 9.43094C6.55417 9.50706 6.53239 9.58109 6.49691 9.6488C6.46144 9.71651 6.41298 9.77656 6.3543 9.82554L4.56221 11.3197L6.3543 12.8127C6.44618 12.8894 6.51221 12.9924 6.54339 13.1079C6.57457 13.2234 6.56939 13.3457 6.52856 13.4582C6.48773 13.5707 6.41322 13.6678 6.3152 13.7364C6.21717 13.8049 6.10039 13.8405 5.98075 13.8403Z" fill="currentColor" />
                            <path d="M11.0191 13.8403C10.8996 13.8402 10.7829 13.8034 10.6851 13.7347C10.5872 13.666 10.5129 13.5689 10.4722 13.4565C10.4316 13.3441 10.4265 13.2219 10.4577 13.1065C10.4889 12.9911 10.5549 12.8881 10.6467 12.8116L12.4376 11.3186L10.6467 9.82554C10.588 9.77656 10.5396 9.71651 10.5041 9.6488C10.4686 9.58109 10.4468 9.50706 10.44 9.43094C10.4331 9.35481 10.4413 9.27807 10.4641 9.20511C10.4869 9.13216 10.5238 9.0644 10.5728 9.00572C10.6218 8.94704 10.6818 8.89858 10.7496 8.8631C10.8173 8.82763 10.8913 8.80584 10.9674 8.79898C11.0435 8.79212 11.1203 8.80032 11.1932 8.82311C11.2662 8.84591 11.3339 8.88285 11.3926 8.93182L13.72 10.8717C13.7855 10.9263 13.8382 10.9946 13.8743 11.0719C13.9105 11.1491 13.9292 11.2333 13.9292 11.3186C13.9292 11.4038 13.9105 11.488 13.8743 11.5653C13.8382 11.6425 13.7855 11.7108 13.72 11.7654L11.3926 13.7053C11.2878 13.7927 11.1556 13.8405 11.0191 13.8403Z" fill="currentColor" />
                            <path d="M7.72354 14.6212C7.66963 14.6212 7.61597 14.6138 7.56411 14.5991C7.41585 14.5566 7.29053 14.457 7.21568 14.3221C7.14084 14.1873 7.1226 14.0282 7.16496 13.8799L8.71268 8.44895C8.75856 8.3047 8.85885 8.18401 8.99226 8.11249C9.12567 8.04098 9.2817 8.02427 9.42723 8.06591C9.57276 8.10756 9.69633 8.20428 9.77172 8.33554C9.8471 8.46681 9.86836 8.62228 9.83099 8.76897L8.27978 14.1999C8.24511 14.3216 8.17171 14.4287 8.0707 14.5049C7.96969 14.5812 7.84659 14.6224 7.72005 14.6224L7.72354 14.6212Z" fill="currentColor" />
                          </g>
                        </svg>