<svg width="26" height="20" viewBox="0 0 26 20" fill="none" xmlns="http://www.w3.org/2000/svg">
                          <path d="M24.375 20C24.375 20 26 20 26 18.3333C26 16.6667 24.375 11.6667 17.875 11.6667C11.375 11.6667 9.75 16.6667 9.75 18.3333C9.75 20 11.375 20 11.375 20H24.375ZM11.4107 18.3333C11.3987 18.3316 11.3868 18.3294 11.375 18.3267C11.3766 17.8867 11.6464 16.61 12.61 15.46C13.507 14.3817 15.0833 13.3333 17.875 13.3333C20.6651 13.3333 22.2414 14.3833 23.14 15.46C24.1036 16.61 24.3717 17.8883 24.375 18.3267L24.362 18.33C24.3544 18.3313 24.3469 18.3324 24.3392 18.3333H11.4107ZM17.875 8.33333C18.737 8.33333 19.5636 7.98214 20.1731 7.35702C20.7826 6.7319 21.125 5.88405 21.125 5C21.125 4.11594 20.7826 3.2681 20.1731 2.64298C19.5636 2.01786 18.737 1.66667 17.875 1.66667C17.013 1.66667 16.1864 2.01786 15.5769 2.64298C14.9674 3.2681 14.625 4.11594 14.625 5C14.625 5.88405 14.9674 6.7319 15.5769 7.35702C16.1864 7.98214 17.013 8.33333 17.875 8.33333ZM22.75 5C22.75 5.65661 22.6239 6.30679 22.3789 6.91342C22.1339 7.52004 21.7748 8.07124 21.3221 8.53553C20.8695 8.99983 20.332 9.36812 19.7406 9.6194C19.1491 9.87067 18.5152 10 17.875 10C17.2348 10 16.6009 9.87067 16.0094 9.6194C15.418 9.36812 14.8805 8.99983 14.4279 8.53553C13.9752 8.07124 13.6161 7.52004 13.3711 6.91342C13.1261 6.30679 13 5.65661 13 5C13 3.67392 13.5136 2.40215 14.4279 1.46447C15.3421 0.526784 16.5821 0 17.875 0C19.1679 0 20.4079 0.526784 21.3221 1.46447C22.2364 2.40215 22.75 3.67392 22.75 5ZM11.271 12.1333C10.621 11.9234 9.95091 11.7854 9.27225 11.7217C8.89091 11.6845 8.50806 11.6661 8.125 11.6667C1.625 11.6667 0 16.6667 0 18.3333C0 19.445 0.541125 20 1.625 20H8.476C8.2351 19.4797 8.11496 18.9092 8.125 18.3333C8.125 16.65 8.73763 14.93 9.89625 13.4933C10.2911 13.0033 10.751 12.545 11.271 12.1333ZM7.995 13.3333C7.03325 14.8155 6.51372 16.553 6.5 18.3333H1.625C1.625 17.9 1.8915 16.6167 2.86 15.46C3.74563 14.4 5.2845 13.3667 7.995 13.335V13.3333ZM2.4375 5.83333C2.4375 4.50725 2.95111 3.23548 3.86535 2.2978C4.77959 1.36012 6.01957 0.833333 7.3125 0.833333C8.60543 0.833333 9.84541 1.36012 10.7596 2.2978C11.6739 3.23548 12.1875 4.50725 12.1875 5.83333C12.1875 7.15942 11.6739 8.43118 10.7596 9.36887C9.84541 10.3065 8.60543 10.8333 7.3125 10.8333C6.01957 10.8333 4.77959 10.3065 3.86535 9.36887C2.95111 8.43118 2.4375 7.15942 2.4375 5.83333ZM7.3125 2.5C6.45055 2.5 5.6239 2.85119 5.0144 3.47631C4.40491 4.10143 4.0625 4.94928 4.0625 5.83333C4.0625 6.71739 4.40491 7.56523 5.0144 8.19036C5.6239 8.81548 6.45055 9.16667 7.3125 9.16667C8.17445 9.16667 9.0011 8.81548 9.6106 8.19036C10.2201 7.56523 10.5625 6.71739 10.5625 5.83333C10.5625 4.94928 10.2201 4.10143 9.6106 3.47631C9.0011 2.85119 8.17445 2.5 7.3125 2.5Z" fill="currentColor" />
                        </svg>