<svg width="17" height="17" viewBox="0 0 17 17" fill="none" xmlns="http://www.w3.org/2000/svg">
    <g clip-path="url(#clip0_1_230)">
    <path d="M4.70106 12.6237C4.56999 12.6235 4.44437 12.5713 4.35169 12.4786C4.25901 12.3859 4.20682 12.2603 4.20654 12.1292V4.87077C4.20654 4.73947 4.2587 4.61356 4.35153 4.52072C4.44437 4.42789 4.57029 4.37573 4.70158 4.37573C4.83287 4.37573 4.95878 4.42789 5.05162 4.52072C5.14446 4.61356 5.19662 4.73947 5.19662 4.87077V12.1282C5.19676 12.1933 5.18404 12.2578 5.15918 12.318C5.13432 12.3782 5.09783 12.4329 5.05178 12.4789C5.00574 12.525 4.95105 12.5615 4.89086 12.5863C4.83067 12.6112 4.76618 12.6239 4.70106 12.6237Z" fill="currentColor" />
    <path d="M12.2938 12.6237C12.1627 12.6237 12.0369 12.5717 11.9442 12.4789C11.8514 12.3862 11.7993 12.2604 11.7993 12.1292V4.87077C11.7993 4.73947 11.8515 4.61356 11.9443 4.52072C12.0372 4.42789 12.1631 4.37573 12.2944 4.37573C12.4257 4.37573 12.5516 4.42789 12.6444 4.52072C12.7372 4.61356 12.7894 4.73947 12.7894 4.87077V12.1282C12.7894 12.2596 12.7372 12.3857 12.6442 12.4786C12.5513 12.5715 12.4253 12.6237 12.2938 12.6237Z" fill="currentColor" />
    <path d="M8.49989 16.4186C8.36882 16.4183 8.24319 16.3661 8.15051 16.2734C8.05783 16.1807 8.00565 16.0551 8.00537 15.924V1.07707C8.00537 0.945778 8.05753 0.819863 8.15037 0.727025C8.24321 0.634187 8.36912 0.582031 8.50041 0.582031C8.63171 0.582031 8.75762 0.634187 8.85046 0.727025C8.9433 0.819863 8.99546 0.945778 8.99546 1.07707V15.923C8.99546 16.0544 8.94323 16.1805 8.8503 16.2734C8.75736 16.3663 8.63132 16.4186 8.49989 16.4186Z" fill="currentColor" />
    <path d="M15.0523 17H1.94768C1.43129 16.9994 0.936214 16.7941 0.571074 16.4289C0.205934 16.0638 0.000554657 15.5687 0 15.0523L0 1.94768C0.000554657 1.43129 0.205934 0.936214 0.571074 0.571074C0.936214 0.205934 1.43129 0.000554657 1.94768 0L15.0523 0C15.5687 0.000554657 16.0638 0.205934 16.4289 0.571074C16.7941 0.936214 16.9994 1.43129 17 1.94768V15.0523C16.9994 15.5687 16.7941 16.0638 16.4289 16.4289C16.0638 16.7941 15.5687 16.9994 15.0523 17ZM1.94768 1.06237C1.71296 1.06265 1.48794 1.15601 1.32198 1.32198C1.15601 1.48794 1.06265 1.71296 1.06237 1.94768V15.0523C1.06265 15.287 1.15601 15.5121 1.32198 15.678C1.48794 15.844 1.71296 15.9374 1.94768 15.9376H15.0523C15.287 15.9374 15.5121 15.844 15.678 15.678C15.844 15.5121 15.9374 15.287 15.9376 15.0523V1.94768C15.9374 1.71296 15.844 1.48794 15.678 1.32198C15.5121 1.15601 15.287 1.06265 15.0523 1.06237H1.94768Z" fill="currentColor" />
    <path d="M15.923 12.7894H1.07707C0.945778 12.7894 0.819863 12.7372 0.727025 12.6444C0.634187 12.5516 0.582031 12.4257 0.582031 12.2944C0.582031 12.1631 0.634187 12.0372 0.727025 11.9443C0.819863 11.8515 0.945778 11.7993 1.07707 11.7993H15.923C16.0543 11.7993 16.1802 11.8515 16.273 11.9443C16.3659 12.0372 16.418 12.1631 16.418 12.2944C16.418 12.4257 16.3659 12.5516 16.273 12.6444C16.1802 12.7372 16.0543 12.7894 15.923 12.7894Z" fill="currentColor" />
    <path d="M15.923 5.20077H1.07707C0.945778 5.20077 0.819863 5.14862 0.727025 5.05578C0.634187 4.96294 0.582031 4.83702 0.582031 4.70573C0.582031 4.57444 0.634187 4.44852 0.727025 4.35568C0.819863 4.26285 0.945778 4.21069 1.07707 4.21069H15.923C16.0543 4.21069 16.1802 4.26285 16.273 4.35568C16.3659 4.44852 16.418 4.57444 16.418 4.70573C16.418 4.83702 16.3659 4.96294 16.273 5.05578C16.1802 5.14862 16.0543 5.20077 15.923 5.20077Z" fill="currentColor" />
    </g>
</svg> 