<svg width="23" height="23" viewBox="0 0 23 23" fill="none" xmlns="http://www.w3.org/2000/svg">
                          <path d="M11.9959 4.37584C13.2628 4.37584 14.2892 3.41093 14.2892 2.22181C14.2892 1.03096 13.2628 0.0664062 11.9959 0.0664062C10.7282 0.0664062 9.70215 1.03096 9.70215 2.22181C9.70215 3.41088 10.7282 4.37584 11.9959 4.37584Z" fill="currentColor" />
                          <path d="M15.0752 5.73052L11.9958 8.62324L8.89708 5.71265C8.19512 6.12271 7.64062 6.87052 7.64062 7.57695V14.8191C7.64062 15.3414 8.09094 15.7644 8.6469 15.7644C8.91987 15.7644 8.6469 15.7644 9.34892 15.7644L9.73163 21.941C9.73163 22.4966 10.2111 22.9469 10.8029 22.9469C11.052 22.9469 11.5127 22.9469 11.9723 22.9469C12.4324 22.9469 12.8924 22.9469 13.1422 22.9469C13.7336 22.9469 14.2127 22.4966 14.2127 21.941L14.5957 15.7644C15.2977 15.7644 15.024 15.7644 15.2977 15.7644C15.8533 15.7644 16.3036 15.3414 16.3036 14.8191V7.57691C16.3037 6.88031 15.7645 6.14407 15.0752 5.73052Z" fill="currentColor" />
                          <path d="M11.3105 7.47271L11.995 8.11564L12.6298 7.51972V6.35944H11.3105V7.47271Z" fill="currentColor" />
                          <path d="M12.6278 5.15143H11.3105V5.94451H12.6278V5.15143Z" fill="currentColor" />
                          <path d="M19.2368 6.72874C20.3443 6.72874 21.2397 5.88619 21.2397 4.84691C21.2397 3.80764 20.3443 2.96509 19.2368 2.96509C18.1309 2.96509 17.2344 3.8076 17.2344 4.84691C17.2344 5.88623 18.1309 6.72874 19.2368 6.72874Z" fill="currentColor" />
                          <path d="M21.5844 7.7431L19.1962 9.98619L17.6205 8.50598V14.819C17.6205 15.4261 17.3532 15.9726 16.9253 16.3683V16.6745L17.2595 22.0681C17.2595 22.5532 17.6788 22.9468 18.1948 22.9468C18.4133 22.9468 18.8146 22.9468 19.2164 22.9468C19.6186 22.9468 20.0203 22.9468 20.238 22.9468C20.7547 22.9468 21.1733 22.5532 21.1733 22.0681L21.5075 16.6745C22.1207 16.6745 21.8821 16.6745 22.1207 16.6745C22.6061 16.6745 22.9992 16.3051 22.9992 15.8485V9.52425C22.9992 8.80342 22.3394 8.03492 21.5844 7.7431Z" fill="currentColor" />
                          <path d="M19.1973 9.47694L19.8247 8.88803V8.12476H18.6201V8.93469L19.1973 9.47694Z" fill="currentColor" />
                          <path d="M19.8258 7.22681H18.6201V7.74734H19.8258V7.22681Z" fill="currentColor" />
                          <path d="M4.70891 6.72874C5.8149 6.72874 6.71138 5.88619 6.71138 4.84691C6.71138 3.80764 5.8149 2.96509 4.70891 2.96509C3.60144 2.96509 2.70605 3.8076 2.70605 4.84691C2.70605 5.88623 3.60144 6.72874 4.70891 6.72874Z" fill="currentColor" />
                          <path d="M6.32398 8.50598L4.74827 9.98619L2.36009 7.7431C1.60513 8.03492 0.945312 8.80342 0.945312 9.52429V15.8485C0.945312 16.3052 1.33849 16.6745 1.82386 16.6745C2.06243 16.6745 1.82386 16.6745 2.43696 16.6745L2.7712 22.0681C2.7712 22.5533 3.18973 22.9468 3.7065 22.9468C3.92419 22.9468 4.32598 22.9468 4.7281 22.9468C5.12989 22.9468 5.53125 22.9468 5.7497 22.9468C6.26575 22.9468 6.68505 22.5533 6.68505 22.0681L7.01924 16.6745V16.3683C6.59138 15.9726 6.32403 15.4261 6.32403 14.819V8.50598H6.32398Z" fill="currentColor" />
                          <path d="M4.74642 9.47694L5.3237 8.93469V8.12476H4.11914V8.88803L4.74642 9.47694Z" fill="currentColor" />
                          <path d="M5.32484 7.22681H4.11914V7.74734H5.32484V7.22681Z" fill="currentColor" />
                        </svg>