<svg width="24" height="24" viewBox="0 0 24 24" fill="none" xmlns="http://www.w3.org/2000/svg">
                          <path fill-rule="evenodd" clip-rule="evenodd" d="M12 24C5.376 24 0 18.624 0 12C0 5.376 5.376 0 12 0C18.612 0 24 5.376 24 12C24 18.624 18.612 24 12 24ZM19.926 18.468C21.4033 16.6691 22.221 14.4191 22.2435 12.0915C21.9045 12.156 18.5205 12.846 15.111 12.417C15.033 12.585 14.967 12.768 14.889 12.9495C14.6805 13.4445 14.4465 13.9515 14.2125 14.4345C17.9865 15.969 19.7055 18.1815 19.9275 18.4695L19.926 18.468ZM12 22.23C14.6025 22.23 16.9845 21.255 18.795 19.653C18.612 19.392 17.0625 17.3235 13.419 15.957C11.739 19.041 9.879 21.567 9.5925 21.957C10.3817 22.1413 11.1896 22.2329 12 22.23ZM7.6395 21.267C9.01301 19.3634 10.2819 17.3865 11.4405 15.345C6.651 14.07 2.421 14.0955 1.965 14.0955C2.29478 15.6469 2.97848 17.1012 3.96278 18.3449C4.94707 19.5886 6.20536 20.5896 7.6395 21.267ZM1.7445 11.985V12.3C2.187 12.285 7.1595 12.2205 12.2745 13.7565C12.573 13.185 12.846 12.5985 13.107 12.0135L12.702 11.8965C7.419 10.191 4.608 5.532 4.3725 5.1405C2.68023 7.01911 1.74398 9.45807 1.7445 11.9865V11.985ZM12 1.7445C9.72232 1.74094 7.50928 2.5015 5.715 3.9045C5.895 4.2825 7.9785 8.2905 13.7565 10.308C13.7835 10.3215 13.7955 10.3215 13.8225 10.3335C14.7966 7.81895 15.5284 5.21715 16.008 2.5635C14.742 2.0195 13.3779 1.74077 12 1.7445ZM17.715 3.501C17.61 4.1265 17.0625 7.119 15.723 10.803C18.9375 11.31 21.7485 10.4775 22.0995 10.3605C21.8809 8.97652 21.3784 7.6527 20.6236 6.47224C19.8688 5.29178 18.878 4.28018 17.7135 3.501H17.715Z" fill="currentColor" />
                        </svg>